:FULLY-SPECIFIED
:FORCE-ALL-JOINTS-BE-3DOF
:DEGREES
374
root 6.17825 16.5447 -15.8172 9.2923 -17.316 -6.30596
lfemur -41.7403 21.2631 -11.7817
ltibia 57.6227 -0 0
lfoot -5.99654 -0.596885 -0.202879
ltoes 15.4986 -0 0
rfemur -22.0604 -2.443 31.4094
rtibia 38.3406 -0 0
rfoot -23.3272 1.36911 0.15882
rtoes 15.6632 -0 0
lowerback 4.58207 1.94284 3.4939
upperback 2.45123 2.7104 1.0601
thorax 0.0969546 1.37837 -0.993061
lowerneck -7.53954 -1.54168 2.82381
upperneck -0.0911652 -2.355 2.23207
head 1.23687 -1.13554 0.135331
lclavicle -2.48481e-017 1.13307e-014 0
lhumerus -40.3369 -22.7506 95.0185
lradius 55.4771 -0 0
lwrist 16.9001 0 0
lhand -19.8164 2.99061 0.109317
lfingers 7.12502 -0 0
lthumb 6.51472 32.8027 0.0960247
rclavicle -2.48481e-017 1.13307e-014 0
rhumerus -38.3791 12.4393 -94.1857
rradius 61.0097 -0 0
rwrist 8.95124 0 0
rhand -16.3294 -22.7179 0.503982
rfingers 7.12502 -0 0
rthumb 9.8972 -52.3777 0.449356
375
root 6.13568 16.545 -15.7 9.39294 -18.0305 -6.4321
lfemur -43.035 21.1806 -12.4517
ltibia 56.4287 -0 0
lfoot -6.54212 0.191116 -0.160525
ltoes 15.029 -0 0
rfemur -21.4938 -1.75722 31.4075
rtibia 38.3012 -0 0
rfoot -23.3609 1.17207 0.115925
rtoes 16.1643 -0 0
lowerback 4.69043 2.04508 3.62318
upperback 2.46596 2.85615 0.985997
thorax 0.0628584 1.45163 -1.14972
lowerneck -7.50542 -1.40311 3.01116
upperneck -0.147079 -2.18254 2.13839
head 1.20871 -1.05169 0.0830411
lclavicle -2.48481e-017 1.13307e-014 0
lhumerus -40.1438 -22.7876 94.5918
lradius 55.341 -0 0
lwrist 17.0019 0 0
lhand -20.4728 2.72434 0.0874844
lfingers 7.12502 -0 0
lthumb 5.88149 32.5681 0.0760638
rclavicle -2.48481e-017 1.13307e-014 0
rhumerus -38.2339 12.9614 -94.1382
rradius 60.2307 -0 0
rwrist 9.30277 0 0
rhand -14.8788 -21.617 0.420536
rfingers 7.12502 -0 0
rthumb 11.2907 -51.2093 0.383058
376
root 6.09238 16.5449 -15.5802 9.47166 -18.7409 -6.54799
lfemur -44.1558 21.0252 -13.0192
ltibia 55.3003 -0 0
lfoot -7.03247 0.943816 -0.115999
ltoes 14.5696 -0 0
rfemur -20.9916 -1.1982 31.4041
rtibia 38.3812 -0 0
rfoot -23.3119 0.991785 0.0766502
rtoes 16.6612 -0 0
lowerback 4.78699 2.14618 3.73233
upperback 2.47613 2.9994 0.912611
thorax 0.0298772 1.52343 -1.2939
lowerneck -7.4706 -1.26841 3.19249
upperneck -0.183186 -2.01544 2.05229
head 1.18728 -0.96988 0.0336446
lclavicle -2.48481e-017 1.13307e-014 0
lhumerus -39.9848 -22.802 94.2034
lradius 55.2049 -0 0
lwrist 17.0985 0 0
lhand -21.0478 2.48987 0.0646671
lfingers 7.12502 -0 0
lthumb 5.32677 32.3621 0.0555389
rclavicle -2.48481e-017 1.13307e-014 0
rhumerus -38.133 13.4191 -94.0981
rradius 59.5242 -0 0
rwrist 9.61558 0 0
rhand -13.6018 -20.6235 0.31866
rfingers 7.12502 -0 0
rthumb 12.5176 -50.1579 0.295641
377
root 6.04816 16.5445 -15.4573 9.52516 -19.4501 -6.65297
lfemur -45.079 20.7962 -13.4668
ltibia 54.2556 -0 0
lfoot -7.45932 1.64791 -0.0722453
ltoes 14.1326 -0 0
rfemur -20.5598 -0.784132 31.4002
rtibia 38.5917 -0 0
rfoot -23.1751 0.834975 0.0429971
rtoes 17.1514 -0 0
lowerback 4.87049 2.24614 3.81916
upperback 2.48124 3.13988 0.840714
thorax -0.00196249 1.59365 -1.42349
lowerneck -7.43568 -1.13754 3.36648
upperneck -0.19634 -1.85358 1.97462
head 1.17369 -0.890011 -0.012475
lclavicle -2.48481e-017 1.13307e-014 0
lhumerus -39.8645 -22.7891 93.8584
lradius 55.0693 -0 0
lwrist 17.1881 0 0
lhand -21.5327 2.29084 0.0418568
lfingers 7.12502 -0 0
lthumb 4.85912 32.1883 0.0354109
rclavicle -2.48481e-017 1.13307e-014 0
rhumerus -38.0859 13.7999 -94.0714
rradius 58.8995 -0 0
rwrist 9.88404 0 0
rhand -12.5338 -19.7588 0.207894
rfingers 7.12502 -0 0
rthumb 13.5442 -49.2477 0.196221
378
root 6.00284 16.5438 -15.331 9.55013 -20.161 -6.74629
lfemur -45.7815 20.4929 -13.7785
ltibia 53.3126 -0 0
lfoot -7.8145 2.29015 -0.0324646
ltoes 13.7303 -0 0
rfemur -20.2045 -0.533222 31.3971
rtibia 38.9437 -0 0
rfoot -22.9455 0.708367 0.0168681
rtoes 17.6322 -0 0
lowerback 4.93964 2.34492 3.88146
upperback 2.4808 3.27728 0.77107
thorax -0.0326295 1.66213 -1.53638
lowerneck -7.40126 -1.01043 3.5318
upperneck -0.18339 -1.69688 1.90624
head 1.16904 -0.811964 -0.0549324
lclavicle -2.48481e-017 1.13307e-014 0
lhumerus -39.7876 -22.744 93.5618
lradius 54.9346 -0 0
lwrist 17.2693 0 0
lhand -21.9184 2.13085 0.0200122
lfingers 7.12502 -0 0
lthumb 4.48713 32.0503 0.0166134
rclavicle -2.48481e-017 1.13307e-014 0
rhumerus -38.1022 14.0909 -94.0644
rradius 58.3656 -0 0
rwrist 10.1025 0 0
rhand -11.7096 -19.0437 0.0983791
rfingers 7.12502 -0 0
rthumb 14.337 -48.5025 0.0945298
379
root 5.95621 16.5429 -15.2007 9.54319 -20.8765 -6.8271
lfemur -46.2414 20.1137 -13.9394
ltibia 52.4892 0 0
lfoot -8.08989 2.85728 0
ltoes 13.3749 0 0
rfemur -19.9317 -0.463717 31.3962
rtibia 39.4485 0 0
rfoot -22.618 0.618733 0
rtoes 18.1011 0 0
lowerback 4.99316 2.4425 3.91702
upperback 2.47433 3.41131 0.704442
thorax -0.0620885 1.72875 -1.63046
lowerneck -7.36796 -0.887037 3.6871
upperneck -0.141185 -1.54524 1.84803
head 1.17445 -0.735625 -0.0933401
lclavicle 7.55382e-015 -4.37326e-015 0
lhumerus -39.7586 -22.6619 93.3187
lradius 54.8011 0 0
lwrist 17.3402 0 0
lhand -22.1962 2.01352 0
lfingers 7.12502 0 0
lthumb 4.21936 31.9515 0
rclavicle 7.55382e-015 -4.37326e-015 0
rhumerus -38.1913 14.2795 -94.0831
rradius 57.9319 0 0
rwrist 10.2654 0 0
rhand -11.1636 -18.4989 0
rfingers 7.12502 0 0
rthumb 14.8629 -767.946 0
380
root 5.90898 16.5417 -15.0659 9.5027 -21.5963 -6.88834
lfemur -46.4583 19.6315 -13.9576
ltibia 51.7135 -0 0
lfoot -8.27732 3.4083 0.0277392
ltoes 13.0115 -0 0
rfemur -19.7328 -0.591913 31.3899
rtibia 40.1648 -0 0
rfoot -22.1551 0.542518 -0.0130244
rtoes 18.5949 -0 0
lowerback 5.02635 2.54252 3.92102
upperback 2.46047 3.5464 0.636349
thorax -0.0888592 1.7957 -1.70779
lowerneck -7.33173 -0.771198 3.83486
upperneck -0.0699708 -1.40393 1.80608
head 1.18899 -0.663534 -0.12614
lclavicle 7.55382e-015 -4.37326e-015 0
lhumerus -39.7817 -22.5501 93.1267
lradius 54.6676 -0 0
lwrist 17.4118 0 0
lhand -22.349 1.94628 -0.0160924
lfingers 7.12502 -0 0
lthumb 4.07225 31.8978 -0.0129764
rclavicle 7.55382e-015 -4.37326e-015 0
rhumerus -38.3431 14.3907 -94.1128
rradius 57.5876 -0 0
rwrist 10.3712 0 0
rhand -10.8266 -18.0824 -0.0831487
rfingers 7.12502 -0 0
rthumb 15.1882 -47.5297 -0.0815244
381
root 5.86192 16.5401 -14.9268 9.43061 -22.3169 -6.92436
lfemur -46.4598 19.03 -13.8597
ltibia 50.9064 -0 0
lfoot -8.38006 4.00639 0.0548794
ltoes 12.5816 -0 0
rfemur -19.5936 -0.908878 31.368
rtibia 41.1265 -0 0
rfoot -21.5328 0.452657 -0.0280982
rtoes 19.1463 -0 0
lowerback 5.03688 2.64801 3.89218
upperback 2.43869 3.68642 0.562252
thorax -0.111764 1.86493 -1.77257
lowerneck -7.28868 -0.666067 3.97867
upperneck 0.0263625 -1.27725 1.78432
head 1.21061 -0.597851 -0.152532
lclavicle 7.55382e-015 -4.37326e-015 0
lhumerus -39.8547 -22.4207 92.978
lradius 54.5326 -0 0
lwrist 17.4946 0 0
lhand -22.3737 1.93066 -0.0267686
lfingers 7.12502 -0 0
lthumb 4.04867 31.8895 -0.0214477
rclavicle 7.55382e-015 -4.37326e-015 0
rhumerus -38.5383 14.46 -94.1349
rradius 57.3132 -0 0
rwrist 10.4254 0 0
rhand -10.601 -17.7351 -0.15264
rfingers 7.12502 -0 0
rthumb 15.4059 -47.1861 -0.149526
